<svg width="14" height="14" viewBox="0 0 14 14" fill="none" xmlns="http://www.w3.org/2000/svg">
<path d="M2.48828 9.36835C2.98181 10.3662 3.78223 11.1795 4.77203 11.6889C5.75474 12.1934 6.87517 12.3638 7.96345 12.1742C9.05509 11.9822 10.0552 11.4419 10.8142 10.6342C11.5802 9.81878 12.0679 8.78149 12.2072 7.67143C12.3486 6.55886 12.1355 5.43002 11.5982 4.4456C11.0659 3.46882 10.2341 2.68874 9.2252 2.22018C8.22285 1.75595 7.09641 1.63142 6.01686 1.86552C4.9377 2.09943 4.05278 2.63143 3.32186 3.4726C3.03654 3.78338 2.79691 4.13319 2.6102 4.51152" stroke="#FDA117" stroke-width="1.2" stroke-linecap="round" stroke-linejoin="round"/>
<path d="M5.20975 4.55759L2.26975 5.08668L1.75 2.09418" stroke="#FDA117" stroke-width="1.2" stroke-linecap="round" stroke-linejoin="round"/>
</svg>
