<svg width="32" height="32" viewBox="0 0 32 32" fill="none" xmlns="http://www.w3.org/2000/svg">
<circle cx="16" cy="16" r="16" fill="#4A015E"/>
<path d="M16 27.25C22.2132 27.25 27.25 22.2132 27.25 16C27.25 9.7868 22.2132 4.75 16 4.75C9.7868 4.75 4.75 9.7868 4.75 16C4.75 22.2132 9.7868 27.25 16 27.25Z" fill="#FFE8A6"/>
<path d="M22.75 19.8252C24.1997 19.8252 25.375 18.6499 25.375 17.2002C25.375 15.7504 24.1997 14.5752 22.75 14.5752C21.3003 14.5752 20.125 15.7504 20.125 17.2002C20.125 18.6499 21.3003 19.8252 22.75 19.8252Z" fill="#F4DC9F"/>
<path d="M10.7874 20.875C12.03 20.875 13.0374 19.8676 13.0374 18.625C13.0374 17.3824 12.03 16.375 10.7874 16.375C9.54471 16.375 8.53735 17.3824 8.53735 18.625C8.53735 19.8676 9.54471 20.875 10.7874 20.875Z" fill="#F4DC9F"/>
<path d="M13.0747 26.125C14.9387 26.125 16.4497 24.614 16.4497 22.75C16.4497 20.886 14.9387 19.375 13.0747 19.375C11.2107 19.375 9.69971 20.886 9.69971 22.75C9.69971 24.614 11.2107 26.125 13.0747 26.125Z" fill="#F4DC9F"/>
<path d="M13 11.9502C13.8284 11.9502 14.5 11.2786 14.5 10.4502C14.5 9.62177 13.8284 8.9502 13 8.9502C12.1716 8.9502 11.5 9.62177 11.5 10.4502C11.5 11.2786 12.1716 11.9502 13 11.9502Z" fill="#F4DC9F"/>
<path d="M17.875 12.3252C18.7034 12.3252 19.375 11.6536 19.375 10.8252C19.375 9.99677 18.7034 9.3252 17.875 9.3252C17.0466 9.3252 16.375 9.99677 16.375 10.8252C16.375 11.6536 17.0466 12.3252 17.875 12.3252Z" fill="#F4DC9F"/>
<path d="M8.53735 15.2124C9.36578 15.2124 10.0374 14.5408 10.0374 13.7124C10.0374 12.884 9.36578 12.2124 8.53735 12.2124C7.70893 12.2124 7.03735 12.884 7.03735 13.7124C7.03735 14.5408 7.70893 15.2124 8.53735 15.2124Z" fill="#F4DC9F"/>
<path d="M18.625 8.2002C19.0392 8.2002 19.375 7.86441 19.375 7.4502C19.375 7.03598 19.0392 6.7002 18.625 6.7002C18.2108 6.7002 17.875 7.03598 17.875 7.4502C17.875 7.86441 18.2108 8.2002 18.625 8.2002Z" fill="#F4DC9F"/>
<path d="M7.03735 19.375C7.45157 19.375 7.78735 19.0392 7.78735 18.625C7.78735 18.2108 7.45157 17.875 7.03735 17.875C6.62314 17.875 6.28735 18.2108 6.28735 18.625C6.28735 19.0392 6.62314 19.375 7.03735 19.375Z" fill="#F4DC9F"/>
<path d="M23.5 23.5C23.9142 23.5 24.25 23.1642 24.25 22.75C24.25 22.3358 23.9142 22 23.5 22C23.0858 22 22.75 22.3358 22.75 22.75C22.75 23.1642 23.0858 23.5 23.5 23.5Z" fill="#F4DC9F"/>
<path d="M13.375 16.3374C13.9963 16.3374 14.5 15.8337 14.5 15.2124C14.5 14.5911 13.9963 14.0874 13.375 14.0874C12.7537 14.0874 12.25 14.5911 12.25 15.2124C12.25 15.8337 12.7537 16.3374 13.375 16.3374Z" fill="#F4DC9F"/>
<path d="M9.625 10.6377C10.0392 10.6377 10.375 10.3019 10.375 9.88769C10.375 9.47348 10.0392 9.1377 9.625 9.1377C9.21079 9.1377 8.875 9.47348 8.875 9.88769C8.875 10.3019 9.21079 10.6377 9.625 10.6377Z" fill="#F4DC9F"/>
<path d="M21.25 25.2251C22.0784 25.2251 22.75 24.5535 22.75 23.7251C22.75 22.8967 22.0784 22.2251 21.25 22.2251C20.4216 22.2251 19.75 22.8967 19.75 23.7251C19.75 24.5535 20.4216 25.2251 21.25 25.2251Z" fill="#F4DC9F"/>
<path d="M13.0747 8.05001C13.0747 9.10001 13.8997 9.92501 14.9497 9.92501C15.9997 9.92501 16.8247 9.10001 16.8247 8.05001C16.8247 7.00001 15.9997 6.17501 14.9497 6.17501C13.8997 6.13751 13.0747 7.00001 13.0747 8.05001Z" fill="#F4DC9F"/>
<path d="M17.8751 18.6248C16.5626 20.4623 13.6376 20.4248 14.2001 17.2373C14.4251 15.9998 15.0251 12.3623 15.0251 12.3623V16.3373C15.0251 19.1873 15.8126 19.0748 17.8751 18.6248Z" fill="#827717"/>
<path d="M20.0499 20.4625C17.4249 22.2625 14.5374 22.2625 11.9499 20.4625C11.6499 20.2375 11.3499 20.6125 11.5749 20.9875C12.3624 22.3 13.9749 23.4625 15.9999 23.4625C18.0249 23.4625 19.6374 22.3 20.4249 20.9875C20.6499 20.6125 20.3499 20.2375 20.0499 20.4625Z" fill="#827717"/>
<path d="M18.4001 13.2623C19.7876 15.8873 22.6001 15.8873 23.9876 13.2623C24.0626 13.1123 23.8751 13.0748 23.6501 12.9248C22.2626 14.0123 19.9751 13.9373 18.7376 12.9248C18.5126 13.0748 18.3251 13.1498 18.4001 13.2623Z" fill="#827717"/>
<path d="M8.01265 13.2623C9.40015 15.8873 12.2126 15.8873 13.6001 13.2623C13.6751 13.1123 13.4876 13.0748 13.2626 12.9248C11.8751 14.0123 9.58765 13.9373 8.35015 12.9248C8.12515 13.0748 7.93765 13.1498 8.01265 13.2623Z" fill="#827717"/>
</svg>
