<svg width="32" height="32" viewBox="0 0 52 52" fill="none" xmlns="http://www.w3.org/2000/svg">
<g filter="url(#filter0_d_9_1042)">
<path d="M42 26C42 34.8366 34.8366 42 26 42C17.1634 42 10 34.8366 10 26C10 17.1634 17.1634 10 26 10C34.8366 10 42 17.1634 42 26Z" fill="white"/>
</g>
<path d="M24.6667 34.667C24.6667 35.4003 25.2667 36.0003 26.0001 36.0003C26.7334 36.0003 27.3334 35.4003 27.3334 34.667H24.6667Z" fill="#616466"/>
<path d="M23.6334 31.3333H28.3334C28.6 29.9 29.5 28.5 30.4334 27.0333C31.5334 25.3333 32.6667 23.5667 32.6667 21.8667C32.6667 18.6333 29.6667 16 26 16C22.3334 16 19.3334 18.6333 19.3334 21.8667C19.3334 23.5667 20.4667 25.3333 21.5334 27.0333C22.4667 28.5 23.3667 29.9 23.6334 31.3333" fill="#FFCE31"/>
<path d="M24.1333 26.5337C24.1666 26.7337 24.2333 26.9337 24.2666 27.1337C24.3666 27.5004 24.4333 27.8337 24.5333 28.2004C24.8333 29.467 25.1 30.5337 25.3333 31.367H25.5333C25.3666 30.5337 25.1333 29.4337 24.8333 28.167C24.7666 27.8337 24.6666 27.467 24.6 27.1004C24.5666 26.9337 24.5333 26.7337 24.4666 26.567C24.7333 26.5004 25.3666 26.3004 26 25.6004C26.6333 26.3004 27.2666 26.5004 27.5333 26.567C27.5 26.767 27.4667 26.9337 27.4 27.1004C27.3333 27.467 27.2333 27.8337 27.1666 28.167C26.8666 29.4337 26.6333 30.5337 26.4667 31.367H26.6666C26.8666 30.5337 27.1667 29.467 27.4667 28.2004C27.5333 27.867 27.6333 27.5004 27.7333 27.1337C27.7667 26.9337 27.8333 26.7337 27.8666 26.5337C28.1333 26.5004 28.3666 26.4337 28.5333 26.267C28.7333 26.067 28.8333 25.8337 28.7666 25.567C28.7333 25.4337 28.6667 25.267 28.4667 25.2337C28.3667 25.2004 28.3 25.2004 28.2 25.2337C28.1 25.267 28.0333 25.3337 28 25.367C27.8333 25.567 27.7666 25.767 27.7 25.967L27.6 26.267C27.6 26.267 27.3333 26.3004 26.7 25.867C26.3666 25.6337 26.2666 25.467 26.1666 25.367C26.2666 25.2337 26.3666 25.1337 26.4667 24.967C26.5 24.867 26.5333 24.8004 26.5666 24.667C26.5666 24.567 26.5666 24.4337 26.5 24.3337C26.4333 24.2337 26.3666 24.1337 26.2 24.067C26.1333 24.0337 26.0666 24.0337 26 24.0337C25.9333 24.0337 25.8666 24.0337 25.8 24.067C25.6666 24.1337 25.5666 24.2337 25.5 24.3337C25.4333 24.4337 25.4333 24.567 25.4333 24.667C25.4333 24.767 25.4666 24.867 25.5333 24.967C25.6 25.1337 25.7 25.267 25.8333 25.367C25.7333 25.467 25.6333 25.6337 25.3 25.867C24.7 26.267 24.4 26.267 24.4 26.267L24.3 25.967C24.2333 25.767 24.1666 25.567 24 25.367C23.9666 25.3337 23.9 25.267 23.8 25.2337C23.7 25.2004 23.6 25.2004 23.5333 25.2337C23.3333 25.3004 23.2666 25.467 23.2333 25.567C23.2 25.8337 23.3 26.067 23.4666 26.267C23.6666 26.4337 23.9 26.5004 24.1333 26.5337V26.5337ZM28 26.0337C28.0666 25.867 28.1333 25.667 28.2666 25.567C28.3 25.5337 28.3333 25.5337 28.3333 25.5337H28.4C28.4333 25.5337 28.4667 25.567 28.5 25.667C28.5333 25.8004 28.4667 26.0004 28.3333 26.1004C28.2333 26.167 28.1 26.2337 27.9667 26.267C27.9667 26.167 27.9666 26.1004 28 26.0337V26.0337ZM25.8 24.4337C25.8666 24.367 25.9333 24.3004 26 24.3004C26.0666 24.3004 26.1333 24.3337 26.2 24.4337C26.2666 24.5337 26.2333 24.667 26.1666 24.8004C26.1333 24.9004 26.0666 25.0004 26 25.067C25.9333 24.967 25.8666 24.9004 25.8333 24.8004C25.7666 24.7004 25.7333 24.567 25.8 24.4337ZM23.5333 25.6004C23.5333 25.5337 23.5666 25.5004 23.6333 25.467H23.7C23.7 25.467 23.7333 25.5004 23.7666 25.5004C23.8666 25.6004 23.9666 25.8004 24.0333 25.967C24.0666 26.0337 24.0666 26.1004 24.1 26.167C23.9666 26.1337 23.8333 26.1004 23.7333 26.0004C23.6 25.9337 23.5333 25.767 23.5333 25.6004" fill="#C79127"/>
<path d="M23.6334 32H28.4001V32.6H23.6334V32Z" fill="#94989B"/>
<path d="M23.9668 33.2002H28.0668V33.8002H23.9668V33.2002Z" fill="#94989B"/>
<path d="M23.9667 32.6001H28.0667V33.2001H23.9667V32.6001Z" fill="#616466"/>
<path d="M28.4 32L23.9667 33.2V33.8333L28.4 32.6V32Z" fill="#94989B"/>
<path d="M24.3 34.4331H27.7334V35.0331H24.3V34.4331Z" fill="#94989B"/>
<path d="M24.3 33.8335H27.7334V34.4335H24.3V33.8335Z" fill="#616466"/>
<path d="M28.0667 33.2002L24.3 34.4335V35.0669L28.0667 33.8335V33.2002Z" fill="#94989B"/>
<defs>
<filter id="filter0_d_9_1042" x="0" y="0" width="52" height="52" filterUnits="userSpaceOnUse" color-interpolation-filters="sRGB">
<feFlood flood-opacity="0" result="BackgroundImageFix"/>
<feColorMatrix in="SourceAlpha" type="matrix" values="0 0 0 0 0 0 0 0 0 0 0 0 0 0 0 0 0 0 127 0" result="hardAlpha"/>
<feOffset/>
<feGaussianBlur stdDeviation="5"/>
<feColorMatrix type="matrix" values="0 0 0 0 0 0 0 0 0 0 0 0 0 0 0 0 0 0 0.1 0"/>
<feBlend mode="normal" in2="BackgroundImageFix" result="effect1_dropShadow_9_1042"/>
<feBlend mode="normal" in="SourceGraphic" in2="effect1_dropShadow_9_1042" result="shape"/>
</filter>
</defs>
</svg>
