<svg width="8" height="10" viewBox="0 0 8 10" fill="none" xmlns="http://www.w3.org/2000/svg">
<path d="M0.943563 9.05873C1.01318 9.09494 1.09135 9.1115 1.16967 9.10665C1.24799 9.1018 1.32351 9.07571 1.38813 9.03118L6.9828 5.15794C7.03997 5.11834 7.08669 5.06546 7.11896 5.00386C7.15123 4.94225 7.16808 4.87373 7.16808 4.80419C7.16808 4.73464 7.15123 4.66613 7.11896 4.60452C7.08669 4.54291 7.03997 4.49004 6.9828 4.45043L1.38813 0.577191C1.32356 0.532517 1.248 0.506356 1.16964 0.501542C1.09127 0.496728 1.01308 0.513444 0.943533 0.54988C0.873986 0.586316 0.815731 0.641084 0.775076 0.708253C0.734422 0.775422 0.712917 0.852433 0.712891 0.930947V8.67743C0.712878 8.75598 0.734367 8.83305 0.775029 8.90026C0.815691 8.96747 0.873975 9.02227 0.943563 9.05873Z" fill="#5F5FFF"/>
</svg>
